<?xml version="1.0" encoding="utf-8"?>
<svg width="300" height="300" viewBox="0 0 1024 1024"
  xmlns="http://www.w3.org/2000/svg">
  <circle
    style="fill:#000;fill-opacity:1;stroke:#000000;stroke-width:80;stroke-linecap:round;stroke-opacity:1"
    id="path822" cx="520" cy="520" r="460" />
  <g transform="scale(0.75) translate(195,195)">
    <path
      fill="#fff"
      d="M734 945q-22 0-38-16t-16-38V789H305q-39 0-66.5-27.5T211 695V320H109q-22 0-38-16t-16-38.5T71 227t38-16h102V109q0-22 16-38t38.5-16T304 71t16 38v547q0 10 7 17t17 7h547q22 0 38 16t16 38.5-16 38.5-38 16H789v102q0 22-16 38t-39 16zm-54-312V344q0-10-7-17t-17-7H367V211h328q39 0 66.5 27.5T789 305v328H680z"
    />
  </g>
</svg>