<svg width="32" height="32" xmlns="http://www.w3.org/2000/svg" data-slot="icon" fill="currentColor">

 <g>
  <title>Layer 1</title>
  <path stroke="#ffffff" id="svg_7" d="m16,31.39668c-8.61199,0 -15.5877,-6.89023 -15.5877,-15.39668c0,-8.50645 6.97571,-15.39668 15.5877,-15.39668c8.61199,0 15.5877,6.89023 15.5877,15.39668c0,8.50645 -6.97571,15.39668 -15.5877,15.39668z" opacity="undefined" fill="#4c4c4c"/>
  <path fill="white" stroke="null" id="svg_1" d="m7.49475,6.10435a0.75,0.75 0 0 0 -1.06,1.06l18,18a0.75,0.75 0 1 0 1.06,-1.06l-18,-18zm19.146,10.083a11.249,11.249 0 0 1 -2.631,4.31l-3.099,-3.099a5.25,5.25 0 0 0 -6.71,-6.71l-2.477,-2.477a11.217,11.217 0 0 1 4.242,-0.827c4.97,0 9.185,3.223 10.675,7.69c0.12,0.362 0.12,0.752 0,1.113z"/>
  <path stroke="null" fill="white" id="svg_2" d="m19.71475,15.63435c0,0.18 -0.013,0.357 -0.037,0.53l-4.244,-4.243a3.75,3.75 0 0 1 4.281,3.713zm-3.22,3.713l-4.243,-4.244a3.75,3.75 0 0 0 4.244,4.243l-0.001,0.001z"/>
  <path stroke="null" fill="white" id="svg_3" d="m10.71475,15.74281c0,-0.619 0.107,-1.213 0.304,-1.764l-3.1,-3.1a11.25,11.25 0 0 0 -2.63,4.31c-0.12,0.362 -0.12,0.752 0,1.114c1.489,4.467 5.704,7.69 10.675,7.69c1.5,0 2.933,-0.294 4.242,-0.827l-2.477,-2.477a5.25,5.25 0 0 1 -7.014,-4.946z"/>
 </g>
</svg>