<svg width="32" height="32" xmlns="http://www.w3.org/2000/svg" class="w-6 h-6" data-slot="icon" stroke="currentColor" stroke-width="1.5" fill="none">

 <g>
  <title>Layer 1</title>
  <ellipse stroke="#000" ry="14.40947" rx="14.40947" id="svg_2" cy="16" cx="16" fill="#fff"/>
  <path id="svg_1" d="m11.65947,12.23277l1.536,0.887m-1.536,-0.887a3,3 0 1 1 -5.196,-3a3,3 0 0 1 5.196,3zm1.536,0.887a2.165,2.165 0 0 1 1.083,1.839c0.005,0.351 0.054,0.695 0.14,1.024m-1.223,-2.863l2.077,1.199m-3.613,5.414l1.536,-0.887m-1.536,0.887a3,3 0 1 1 -5.196,3a3,3 0 0 1 5.196,-3zm1.536,-0.887a2.165,2.165 0 0 0 1.083,-1.838c0.005,-0.352 0.054,-0.695 0.14,-1.025m-1.223,2.863l2.077,-1.199m0,-3.328a4.323,4.323 0 0 1 2.068,-1.379l5.325,-1.628a4.5,4.5 0 0 1 2.48,-0.044l0.803,0.215l-7.794,4.5m-2.882,-1.664a4.33,4.33 0 0 0 -0.854,1.664m3.736,0l7.794,4.5l-0.802,0.215a4.5,4.5 0 0 1 -2.48,-0.043l-5.326,-1.629a4.324,4.324 0 0 1 -2.068,-1.379m2.882,-1.664l-2.882,1.664" stroke-linejoin="round" stroke-linecap="round"/>
 </g>
</svg>