<svg width="50" height="50" viewBox="0 0 400 1000" xmlns="http://www.w3.org/2000/svg">
    <circle
        style="fill:#ffffff;fill-opacity:1;stroke:#000000;stroke-width:40;stroke-linecap:round;stroke-miterlimit:4;stroke-dasharray:none;stroke-opacity:1"
        id="path822" cx="255" cy="530" r="90" />
    <circle
        style="fill:#000000;fill-opacity:1;"
        id="path822" cx="255" cy="530" r="35" />
    <g style="fill:#e84118;fill-opacity:1;">
        <path
            d="M256,0C160.798,0,83.644,77.155,83.644,172.356c0,97.162,48.158,117.862,101.386,182.495 C248.696,432.161,256,512,256,512s7.304-79.839,70.97-157.148c53.228-64.634,101.386-85.334,101.386-182.495 C428.356,77.155,351.202,0,256,0z M256,231.921c-32.897,0-59.564-26.668-59.564-59.564s26.668-59.564,59.564-59.564 c32.896,0,59.564,26.668,59.564,59.564S288.896,231.921,256,231.921z"></path>
    </g>
    <rect width="150" height="150" x="185" y ="110"
        style="fill:#b33939;fill-opacity:1;" />
</svg>